<svg width="1024" height="1024" viewBox="0 0 1024 1024" fill="none" xmlns="http://www.w3.org/2000/svg">
<path d="M0 0H1024V1024H0V0Z" fill="#333335"/>
<path d="M1023 1H513V511H1023V1ZM1 1V511H511V1H1ZM1 1023H511V513H1V1023ZM0 0H1024V1024H0V0ZM1023 1023V513.05L513 513V1023H1023Z" fill="white"/>
<path d="M257 1024H256V769H0V768H256V257H0V256H256V0H257V256H768V0H769V256H1024V257H769V768H1024V769H769V1024H768V769H257V1024ZM257 768H768V257H257V768Z" fill="white" fill-opacity="0.2"/>
<path d="M896 0H897V1024H896V0ZM640 0H641V1024H640V0ZM384 0H385V1024H384V0ZM128 0H129V1024H128V0Z" fill="white" fill-opacity="0.101961"/>
<path d="M1024 128V129H0V128H1024ZM1024 384V385H0V384H1024ZM1024 640V641H0V640H1024ZM1024 896V897H0V896H1024Z" fill="white" fill-opacity="0.101961"/>
<path d="M162.35 96.35C164.05 96.35 165.45 96.7167 166.55 97.45C167.683 98.15 168.517 99.1667 169.05 100.5C169.583 101.833 169.8 103.4 169.7 105.2H156.8C157.067 106.767 157.7 108 158.7 108.9C159.7 109.767 160.983 110.217 162.55 110.25L165.25 109.75L167.45 108.25L168.75 109.65C167.983 110.483 167.067 111.133 166 111.6C164.9 112.033 163.7 112.267 162.4 112.3C160.833 112.267 159.45 111.917 158.25 111.25C157.083 110.583 156.167 109.667 155.5 108.5C154.833 107.3 154.5 105.9 154.5 104.3C154.5 102.733 154.833 101.35 155.5 100.15C156.167 98.95 157.083 98.0167 158.25 97.35C159.45 96.6833 160.817 96.35 162.35 96.35ZM176.1 96.4V99.9C176.633 98.7333 177.367 97.85 178.3 97.25C179.267 96.65 180.417 96.3333 181.75 96.3V98.7C180.083 98.6667 178.75 99.1167 177.75 100.05C176.783 100.983 176.233 102.233 176.1 103.8V112.2H173.75V96.4H176.1ZM192.6 133.15V129.5H197.1V133.15H199.5V137.2H197.1V142.2H192.6V137.2H184.2V133.6L191.65 121.2H196.75L189.65 133.15H192.6ZM156.8 103.3H167.6C167.533 101.767 167.033 100.567 166.1 99.7C165.167 98.8 163.917 98.35 162.35 98.35C160.817 98.35 159.567 98.8 158.6 99.7C157.6 100.567 157 101.767 156.8 103.3ZM173 132.4L175.65 129.4C176.183 128.667 176.45 127.95 176.45 127.25C176.45 126.517 176.217 125.917 175.75 125.45C175.283 124.983 174.7 124.75 174 124.75C172.667 124.75 171.417 125.7 170.25 127.6L166.5 125.35C167.467 123.85 168.533 122.717 169.7 121.95C170.867 121.15 172.367 120.75 174.2 120.75C176 120.75 177.583 121.317 178.95 122.45C180.317 123.617 181 125.183 181 127.15C181 128.25 180.717 129.3 180.15 130.3C179.617 131.267 178.617 132.517 177.15 134.05L173.35 138H181.6V142.2H166.85V138.7L173 132.4ZM58.3499 61H51.9499L48.5999 47.6L45.1499 61H38.7499L31.8999 39.95H38.5999L42.1499 54.55L45.6999 40L51.7999 39.95L55.3499 54.55L58.8999 39.95H65.2499L58.3499 61ZM79.3499 57.65H70.8499L69.5999 61H63.1499L72.1499 39.95H78.5499L87.1999 61H80.5499L79.3499 57.65ZM152.15 109.25L152.8 111.1L151.05 112L149.25 112.3C148.05 112.333 147.083 111.983 146.35 111.25C145.617 110.517 145.233 109.367 145.2 107.8V98.8H142.95V96.9H145.2V92.75H147.55V96.9H152.55V98.8H147.55V107.4C147.55 108.333 147.717 109.017 148.05 109.45C148.417 109.85 148.933 110.05 149.6 110.05C150.433 110.05 151.283 109.783 152.15 109.25ZM133.25 96.35C134.95 96.35 136.35 96.7167 137.45 97.45C138.583 98.15 139.417 99.1667 139.95 100.5C140.483 101.833 140.7 103.4 140.6 105.2H127.7C127.967 106.767 128.6 108 129.6 108.9C130.6 109.767 131.883 110.217 133.45 110.25L136.15 109.75L138.35 108.25L139.65 109.65C138.883 110.483 137.967 111.133 136.9 111.6C135.8 112.033 134.6 112.267 133.3 112.3C131.733 112.267 130.35 111.917 129.15 111.25C127.983 110.583 127.067 109.667 126.4 108.5C125.733 107.3 125.4 105.9 125.4 104.3C125.4 102.733 125.733 101.35 126.4 100.15C127.067 98.95 127.983 98.0167 129.15 97.35C130.35 96.6833 131.717 96.35 133.25 96.35ZM115.95 96.3C117.817 96.3333 119.25 96.8833 120.25 97.95C121.283 99.0167 121.8 100.517 121.8 102.45V112.2H119.5V103.1C119.467 101.667 119.067 100.567 118.3 99.8C117.533 99.0333 116.467 98.6333 115.1 98.6C114 98.6667 113.067 98.9333 112.3 99.4C111.533 99.9 110.95 100.583 110.55 101.45C110.15 102.283 109.95 103.283 109.95 104.45V112.2H107.55V103.1C107.55 101.667 107.167 100.567 106.4 99.8C105.633 99.0333 104.567 98.6333 103.2 98.6C102.1 98.6667 101.167 98.9333 100.4 99.4C99.6332 99.9 99.0499 100.583 98.6499 101.45C98.2166 102.283 97.9999 103.283 97.9999 104.45V112.2H95.6999V96.4H97.9999V99.95C98.5332 98.7167 99.3166 97.8167 100.35 97.25C101.383 96.6167 102.617 96.3 104.05 96.3C105.517 96.3 106.75 96.6667 107.75 97.4C108.717 98.1 109.367 99.1167 109.7 100.45C110.2 99.05 110.983 98.0167 112.05 97.35C113.117 96.65 114.417 96.3 115.95 96.3ZM94.9999 55.8H103.85V61H88.7499V39.95H94.9999V55.8ZM112.2 55.8H121.05V61H105.95V39.95H112.2V55.8ZM32.8999 91.2H41.3999V112.2H36.8999V95.2H32.8999V91.2ZM77.6999 53.1L75.1499 46.2L72.5999 53.1H77.6999ZM60.1499 98.65L64.8999 93.8L67.4999 96.45L62.7999 101.3L67.5499 106.15L64.9499 108.85L60.1499 103.95L55.3999 108.85L52.7499 106.15L57.5499 101.3L52.7499 96.45L55.3999 93.8L60.1499 98.65ZM74.4499 91.2H82.9499V112.2H78.4499V95.2H74.4499V91.2ZM73.3499 132.4L75.9999 129.4C76.5332 128.667 76.7999 127.95 76.7999 127.25C76.7999 126.517 76.5666 125.917 76.0999 125.45C75.6332 124.983 75.0499 124.75 74.3499 124.75C73.0166 124.75 71.7666 125.7 70.5999 127.6L66.8499 125.35C67.8166 123.85 68.8832 122.717 70.0499 121.95C71.2166 121.15 72.7166 120.75 74.5499 120.75C76.3499 120.75 77.9332 121.317 79.2999 122.45C80.6666 123.617 81.3499 125.183 81.3499 127.15C81.3499 128.25 81.0666 129.3 80.4999 130.3C79.9666 131.267 78.9666 132.517 77.4999 134.05L73.6999 138H81.9499V142.2H67.1999V138.7L73.3499 132.4ZM54.6999 142.45C51.7999 142.45 49.6332 141.467 48.1999 139.5C46.7666 137.533 46.0499 134.9 46.0499 131.6C46.0499 128.3 46.7666 125.667 48.1999 123.7C49.6332 121.733 51.7999 120.75 54.6999 120.75C57.5999 120.75 59.7666 121.733 61.1999 123.7C62.6332 125.667 63.3499 128.3 63.3499 131.6C63.3499 134.9 62.6332 137.533 61.1999 139.5C59.7666 141.467 57.5999 142.45 54.6999 142.45ZM51.5999 126.55C50.9332 127.817 50.5999 129.5 50.5999 131.6C50.5999 133.7 50.9332 135.4 51.5999 136.7C52.2666 137.967 53.2999 138.6 54.6999 138.6C56.0999 138.6 57.1332 137.967 57.7999 136.7C58.4666 135.4 58.7999 133.7 58.7999 131.6C58.7999 129.5 58.4666 127.817 57.7999 126.55C57.1332 125.25 56.0999 124.6 54.6999 124.6C53.2999 124.6 52.2666 125.25 51.5999 126.55ZM32.8999 121.2H41.3999V142.2H36.8999V125.2H32.8999V121.2ZM154.35 142.45C151.45 142.45 149.283 141.467 147.85 139.5C146.417 137.533 145.7 134.9 145.7 131.6C145.7 128.3 146.417 125.667 147.85 123.7C149.283 121.733 151.45 120.75 154.35 120.75C157.25 120.75 159.417 121.733 160.85 123.7C162.283 125.667 163 128.3 163 131.6C163 134.9 162.283 137.533 160.85 139.5C159.417 141.467 157.25 142.45 154.35 142.45ZM127.7 103.3H138.5C138.433 101.767 137.933 100.567 137 99.7C136.067 98.8 134.817 98.35 133.25 98.35C131.717 98.35 130.467 98.8 129.5 99.7C128.5 100.567 127.9 101.767 127.7 103.3ZM132.55 121.2H141.05V142.2H136.55V125.2H132.55V121.2ZM118.25 128.65L123 123.8L125.6 126.45L120.9 131.3L125.65 136.15L123.05 138.85L118.25 133.95L113.5 138.85L110.85 136.15L115.65 131.3L110.85 126.45L113.5 123.8L118.25 128.65ZM151.25 126.55C150.583 127.817 150.25 129.5 150.25 131.6C150.25 133.7 150.583 135.4 151.25 136.7C151.917 137.967 152.95 138.6 154.35 138.6C155.75 138.6 156.783 137.967 157.45 136.7C158.117 135.4 158.45 133.7 158.45 131.6C158.45 129.5 158.117 127.817 157.45 126.55C156.783 125.25 155.75 124.6 154.35 124.6C152.95 124.6 151.917 125.25 151.25 126.55ZM92.9499 133.15V129.5H97.4499V133.15H99.8499V137.2H97.4499V142.2H92.9499V137.2H84.5499V133.6L91.9999 121.2H97.0999L89.9999 133.15H92.9499Z" fill="white"/>
<path d="M32 76H200" stroke="white" stroke-width="2" stroke-miterlimit="3"/>
</svg>
