<svg width="1024" height="1024" viewBox="0 0 1024 1024" fill="none" xmlns="http://www.w3.org/2000/svg">
<path d="M0 0H1024V1024H0V0Z" fill="#333335"/>
<path d="M512 512H0V0H512V512H1024V1024H512V512Z" fill="black" fill-opacity="0.101961"/>
<path d="M1023 1H513V511H1023V1ZM1 1V511H511V1H1ZM1 1023H511V513H1V1023ZM0 0H1024V1024H0V0ZM1023 1023V513.05L513 513V1023H1023Z" fill="black" fill-opacity="0.2"/>
<path d="M768 158H769C769.267 158 769.5 158.1 769.7 158.3L770 159V255H866C866.267 255 866.5 255.1 866.7 255.3L867 256V257L866.7 257.7L866 258H770V354L769.7 354.7C769.5 354.9 769.267 355 769 355H768L767.3 354.7C767.1 354.5 767 354.267 767 354V258H671L670.3 257.7C670.1 257.5 670 257.267 670 257V256C670 255.733 670.1 255.5 670.3 255.3C670.5 255.1 670.733 255 671 255H767V159C767 158.733 767.1 158.5 767.3 158.3C767.5 158.1 767.733 158 768 158ZM768 670H769C769.267 670 769.5 670.1 769.7 670.3L770 671V767H866C866.267 767 866.5 767.1 866.7 767.3L867 768V769L866.7 769.7L866 770H770V866L769.7 866.7C769.5 866.9 769.267 867 769 867H768L767.3 866.7C767.1 866.5 767 866.267 767 866V770H671L670.3 769.7C670.1 769.5 670 769.267 670 769V768C670 767.733 670.1 767.5 670.3 767.3C670.5 767.1 670.733 767 671 767H767V671C767 670.733 767.1 670.5 767.3 670.3C767.5 670.1 767.733 670 768 670ZM355 256V257L354.7 257.7C354.5 257.9 354.267 258 354 258H258V354L257.7 354.7L257 355H256L255.3 354.7C255.1 354.5 255 354.267 255 354V258H159L158.3 257.7C158.1 257.5 158 257.267 158 257V256C158 255.733 158.1 255.5 158.3 255.3C158.5 255.1 158.733 255 159 255H255V159C255 158.733 255.1 158.5 255.3 158.3C255.5 158.1 255.733 158 256 158H257C257.267 158 257.5 158.1 257.7 158.3L258 159V255H354C354.267 255 354.5 255.1 354.7 255.3L355 256ZM158 769V768C158 767.733 158.1 767.5 158.3 767.3C158.5 767.1 158.733 767 159 767H255V671C255 670.733 255.1 670.5 255.3 670.3C255.5 670.1 255.733 670 256 670H257C257.267 670 257.5 670.1 257.7 670.3L258 671V767H354C354.267 767 354.5 767.1 354.7 767.3L355 768V769L354.7 769.7C354.5 769.9 354.267 770 354 770H258V866L257.7 866.7L257 867H256L255.3 866.7C255.1 866.5 255 866.267 255 866V770H159L158.3 769.7C158.1 769.5 158 769.267 158 769Z" fill="black" fill-opacity="0.2"/>
</svg>
