<svg width="1024" height="1024" viewBox="0 0 1024 1024" fill="none" xmlns="http://www.w3.org/2000/svg">
<path d="M0 0H1024V1024H0V0Z" fill="#333335"/>
<path d="M1023 1H513V511H1023V1ZM1 1V511H511V1H1ZM1 1023H511V513H1V1023ZM1023 1023V513.05L513 513V1023H1023ZM0 0H1024V1024H0V0Z" fill="white"/>
<path d="M257 1024H256V769H0V768H256V257H0V256H256V0H257V256H768V0H769V256H1024V257H769V768H1024V769H769V1024H768V769H257V1024ZM257 768H768V257H257V768Z" fill="white" fill-opacity="0.2"/>
<path d="M896 0H897V1024H896V0ZM640 0H641V1024H640V0ZM384 0H385V1024H384V0ZM128 0H129V1024H128V0Z" fill="white" fill-opacity="0.101961"/>
<path d="M1024 128V129H0V128H1024ZM1024 384V385H0V384H1024ZM1024 640V641H0V640H1024ZM1024 896V897H0V896H1024Z" fill="white" fill-opacity="0.101961"/>
</svg>
